{"title":"THE WOMAN IN BLACK 2012 SCR READNFO XViD AC3-26K","uid":7045052,"size":1109206632,"categoryP":"video","categoryS":"movies","magnet":"?xt=urn:btih:caa3525a0ad5278a37c7683cd829c3e06466b331&amp;dn=+THE+WOMAN+IN+BLACK+2012+SCR+READNFO+XViD+AC3-26K&amp;tr=udp%3A%2F%2Ftracker.openbittorrent.com%3A80&amp;tr=udp%3A%2F%2Fopen.demonii.com%3A1337&amp;tr=udp%3A%2F%2Ftracker.coppersurfer.tk%3A6969&amp;tr=udp%3A%2F%2Fexodus.desync.com%3A6969","seeders":0,"leechers":0,"uploader":"MisterNobody","files":-1,"time":1329713469,"description":"THE WOMAN IN BLACK 2012 SCR READNFO XViD AC3-26K\n\nImdb: &lt;a href=&quot;\nhttp://www.imdb.com/title/tt1596365/&quot; rel=&quot;nofollow&quot; target=&quot;_NEW&quot;&gt;\nhttp://www.imdb.com/title/tt1596365/&lt;/a&gt;\n\nPlot:\nA young lawyer travels to a remote village where he discovers the vengeful ghost of a scorned woman is terrorizing the locals.\n\nSources:\nTONY ! THNXS :p\n\nNotes:\nREADNFO AS WATERMARK AT BOTTOM \\&quot;COPYRIGHT SQUID...\\&quot; DECIDED TO LEAVE THIS IN... AS IT WOULD crop TO MUCH OF THE VIDEO, fixed bad ar and cropped out black borders!!!\nand ..ADDED A FEW FILTERS TO THE VIDEO SO TAKE IT OR LEAvE IT!\n\nGreetz:\nXtreme Encode|FYA|ILLUMANTI|CM8|RX|VISION|HDSCENE|NIGHTMAREZ|xTriLL|DTRG|CRYS|REMIXHD|BIDA|RX|REFILL|INSPiRAL|SIC|ZOMBIESZ|HOPE|Anonymous|GooN\nTo all the people who have helped me you know who you are\n\nAnything to offer email us @: &lt;a class=&quot;__cf_email__&quot; href=&quot;/cdn-cgi/l/email-protection&quot; data-cfemail=&quot;5c6e6a371c34292f34313d3530723139&quot;&gt;[email&amp;#160;protected]&lt;/a&gt;&lt;script cf-hash='f9e31' type=&quot;text/javascript&quot;&gt;\n/* &lt;![CDATA[ */!function(){try{var t=&quot;currentScript&quot;in document?document.currentScript:function(){for(var t=document.getElementsByTagName(&quot;script&quot;),e=t.length;e--;)if(t[e].getAttribute(&quot;cf-hash&quot;))return t[e]}();if(t&amp;&amp;t.previousSibling){var e,r,n,i,c=t.previousSibling,a=c.getAttribute(&quot;data-cfemail&quot;);if(a){for(e=&quot;&quot;,r=parseInt(a.substr(0,2),16),n=2;a.length-n;n+=2)i=parseInt(a.substr(n,2),16)^r,e+=String.fromCharCode(i);e=document.createTextNode(e),c.parentNode.replaceChild(e,c)}}}catch(u){}}();/* ]]&gt; */&lt;/script&gt;\n\nVideo\nID                                       : 0\nFormat                                   : MPEG-4 Visual\nFormat profile                           : Advanced Simple@L5\nFormat settings, BVOP                    : 2\nFormat settings, QPel                    : No\nFormat settings, GMC                     : No warppoints\nFormat settings, Matrix                  : Default (H.263)\nCodec ID                                 : XVID\nCodec ID/Hint                            : XviD\nDuration                                 : 1h 28mn\nBit rate                                 : 1 491 Kbps\nWidth                                    : 720 pixels\nHeight                                   : 320 pixels\nDisplay aspect ratio                     : 2.25:1\nFrame rate                               : 25.000 fps\nColor space                              : YUV\nChroma subsampling                       : 4:2:0\nBit depth                                : 8 bits\nScan type                                : Progressive\nCompression mode                         : Lossy\nBits/(Pixel*Frame)                       : 0.259\nStream size                              : 942 MiB (91%)\nWriting library                          : XviD 64\n\nAudio\nID                                       : 1\nFormat                                   : AC-3\nFormat/Info                              : Audio Coding 3\nMode extension                           : CM (complete main)\nCodec ID                                 : 2000\nDuration                                 : 1h 28mn\nSource duration                          : 1h 28mn\nBit rate mode                            : Constant\nBit rate                                 : 128 Kbps\nChannel(s)                               : 2 channels\nChannel positions                        : Front: L R\nSampling rate                            : 48.0 KHz\nBit depth                                : 16 bits\nCompression mode                         : Lossy\nStream size                              : 80.8 MiB (8%)\nAlignment                                : Aligned on interleaves\nInterleave, duration                     : 32 ms (0.80 video frame)\n\n","torrent":{"xt":"urn:btih:caa3525a0ad5278a37c7683cd829c3e06466b331","amp;dn":"+THE+WOMAN+IN+BLACK+2012+SCR+READNFO+XViD+AC3-26K","amp;tr":["udp%3A%2F%2Ftracker.openbittorrent.com%3A80","udp%3A%2F%2Fopen.demonii.com%3A1337","udp%3A%2F%2Ftracker.coppersurfer.tk%3A6969","udp%3A%2F%2Fexodus.desync.com%3A6969"],"infoHash":"caa3525a0ad5278a37c7683cd829c3e06466b331","infoHashBuffer":{"type":"Buffer","data":[202,163,82,90,10,213,39,138,55,199,104,60,216,41,195,224,100,102,179,49]},"announce":[],"urlList":[]}}